# xmcd
#
# Track frame offsets: 
#        150
#        20785
#        37250
#        60030
#        92225
#        109902
#        149610
#        176117
#        196635
#        220850
#        246940
#
# Disc length: 3643 seconds
#
# Revision: 10
# Processed by: cddbd v1.5.2PL0 Copyright (c) Steve Scherf et al.
# Submitted via: ExactAudioCopy v1.0b3
#
DISCID=a10e390b
DTITLE=Various Artist - Dot Com Blues
DYEAR=2000
DGENRE=Blues
TTITLE0=Jimmy Smith feat. Dr. John - Only In It For The Money
TTITLE1=Jimmy Smith - 8 Counts For Rita
TTITLE2=Jimmy Smith - Strut
TTITLE3=Jimmy Smith feat. Taj Mahal - C. C. Rider
TTITLE4=Jimmy Smith feat. Etta James, Dr. John - I Just Wanna Make Lov
TTITLE4=e To You
TTITLE5=Jimmy Smith - Mood Indigo
TTITLE6=Jimmy Smith feat. Keb' Mo, Jon Cleary - Over and Over
TTITLE7=Jimmy Smith feat. B.B. King - Three O'Clock Blues
TTITLE8=Jimmy Smith - Dot Com Blues
TTITLE9=Jimmy Smith feat. Dr. John - Mr. Johnson
TTITLE10=Jimmy Smith - Tuition Blues
EXTD=LABEL =Verve Music Group\nID =314543978-2\nUPC =none\nCOPYRIGH
EXTD=T =2000
EXTT0=
EXTT1=
EXTT2=
EXTT3=
EXTT4=
EXTT5=
EXTT6=
EXTT7=
EXTT8=
EXTT9=
EXTT10=
PLAYORDER=
